<svg width="25" height="25" viewBox="0 0 25 25" fill="none" xmlns="http://www.w3.org/2000/svg">
<path d="M12.5469 22.6484C12.5312 22.6484 12.5117 22.6484 12.4883 22.6484C12.4648 22.6484 12.4453 22.6484 12.4297 22.6484C11.0234 22.6484 9.70312 22.3828 8.46875 21.8516C7.25 21.3203 6.17969 20.5977 5.25781 19.6836C4.33594 18.7695 3.60938 17.6953 3.07812 16.4609C2.54688 15.2266 2.28125 13.9141 2.28125 12.5234C2.28125 11.3203 2.48437 10.1797 2.89062 9.10156C3.28125 8.02344 3.82031 7.05469 4.50781 6.19531C5.19531 5.33594 6.01562 4.59375 6.96875 3.96875C7.92188 3.35938 8.95312 2.92188 10.0625 2.65625H10.1328C10.5078 2.5625 10.8984 2.48828 11.3047 2.43359C11.7109 2.37891 12.1328 2.35156 12.5703 2.35156C13.9766 2.35156 15.2891 2.61719 16.5078 3.14844C17.7422 3.67969 18.8203 4.40234 19.7422 5.31641C20.6641 6.23047 21.3906 7.30469 21.9219 8.53906C22.4531 9.77344 22.7188 11.0938 22.7188 12.5C22.7188 12.9375 22.6875 13.375 22.625 13.8125C22.5625 14.25 22.4766 14.6719 22.3672 15.0781L22.3906 15.0078C22.3594 15.0859 22.3125 15.1523 22.25 15.207C22.1875 15.2617 22.1172 15.2891 22.0391 15.2891C22.0234 15.2891 22.0078 15.2891 21.9922 15.2891C21.9766 15.2891 21.9609 15.2812 21.9453 15.2656C21.8672 15.25 21.8008 15.2109 21.7461 15.1484C21.6914 15.0859 21.6641 15.0078 21.6641 14.9141C21.6641 14.8984 21.668 14.8828 21.6758 14.8672C21.6836 14.8516 21.6875 14.8359 21.6875 14.8203C21.7812 14.4766 21.8555 14.1055 21.9102 13.707C21.9648 13.3086 21.9922 12.8984 21.9922 12.4766C21.9922 11.1797 21.7422 9.96094 21.2422 8.82031C20.7578 7.67969 20.0898 6.68359 19.2383 5.83203C18.3867 4.98047 17.3906 4.30469 16.25 3.80469C15.1094 3.32031 13.8828 3.07812 12.5703 3.07812C11.7266 3.07812 10.9141 3.1875 10.1328 3.40625C9.33594 3.60938 8.59375 3.91016 7.90625 4.30859C7.21875 4.70703 6.59375 5.1875 6.03125 5.75C5.45312 6.29688 4.96094 6.90625 4.55469 7.57812L4.53125 7.625C4.10938 8.32812 3.77734 9.08984 3.53516 9.91016C3.29297 10.7305 3.17188 11.5859 3.17188 12.4766C3.17188 13.7734 3.42188 14.9922 3.92188 16.1328C4.40625 17.2734 5.07422 18.2695 5.92578 19.1211C6.77734 19.9727 7.77344 20.6484 8.91406 21.1484C10.0547 21.6328 11.2734 21.875 12.5703 21.875C12.9766 21.875 13.375 21.8516 13.7656 21.8047C14.1562 21.7578 14.5312 21.6875 14.8906 21.5938L14.8438 21.6172C16.0469 21.3047 17.1328 20.793 18.1016 20.082C19.0703 19.3711 19.8672 18.5234 20.4922 17.5391L20.5156 17.4922C20.1562 16.7422 19.7109 16.0625 19.1797 15.4531C18.6328 14.8281 18.0195 14.2969 17.3398 13.8594C16.6602 13.4219 15.9219 13.0781 15.125 12.8281C14.3281 12.5938 13.4922 12.4766 12.6172 12.4766H12.4766C11.1797 12.4766 9.96875 12.7383 8.84375 13.2617C7.71875 13.7852 6.75 14.4844 5.9375 15.3594V15.3828C5.90625 15.4297 5.86328 15.4648 5.80859 15.4883C5.75391 15.5117 5.69531 15.5234 5.63281 15.5234C5.53906 15.5234 5.45703 15.4883 5.38672 15.418C5.31641 15.3477 5.28125 15.2656 5.28125 15.1719C5.28125 15.1094 5.29297 15.0547 5.31641 15.0078C5.33984 14.9609 5.36719 14.9219 5.39844 14.8906C5.85156 14.4062 6.34375 13.9688 6.875 13.5781C7.40625 13.1875 7.97266 12.8594 8.57422 12.5938C9.17578 12.3281 9.80469 12.1172 10.4609 11.9609C11.1328 11.8203 11.8203 11.75 12.5234 11.75C12.5391 11.75 12.5586 11.7461 12.582 11.7383C12.6055 11.7305 12.625 11.7266 12.6406 11.7266C13.5938 11.7266 14.5078 11.8672 15.3828 12.1484C16.2578 12.4141 17.0625 12.7891 17.7969 13.2734C18.5312 13.7578 19.1953 14.3359 19.7891 15.0078C20.3672 15.6797 20.8438 16.4141 21.2188 17.2109L21.2422 17.2812L21.2891 17.3984C21.3047 17.4141 21.3164 17.4375 21.3242 17.4688C21.332 17.5 21.3359 17.5312 21.3359 17.5625C21.3359 17.5781 21.332 17.6016 21.3242 17.6328C21.3164 17.6641 21.3047 17.6953 21.2891 17.7266C20.8359 18.4609 20.3047 19.1328 19.6953 19.7422C19.0703 20.3516 18.3867 20.8711 17.6445 21.3008C16.9023 21.7305 16.1016 22.0625 15.2422 22.2969C14.3984 22.5312 13.5156 22.6484 12.5938 22.6484C12.5938 22.6484 12.5898 22.6484 12.582 22.6484C12.5742 22.6484 12.5625 22.6484 12.5469 22.6484ZM12.5234 12.4766C11.5234 12.4766 10.668 12.1211 9.95703 11.4102C9.24609 10.6992 8.89062 9.83594 8.89062 8.82031C8.89062 7.82031 9.24609 6.96484 9.95703 6.25391C10.668 5.54297 11.5234 5.1875 12.5234 5.1875C13.5234 5.1875 14.3789 5.54297 15.0898 6.25391C15.8008 6.96484 16.1562 7.82031 16.1562 8.82031C16.1562 9.11719 16.1211 9.40625 16.0508 9.6875C15.9805 9.96875 15.8906 10.2344 15.7812 10.4844V10.4609C15.75 10.5078 15.707 10.5508 15.6523 10.5898C15.5977 10.6289 15.5312 10.6484 15.4531 10.6484C15.4219 10.6484 15.3945 10.6445 15.3711 10.6367C15.3477 10.6289 15.3203 10.6172 15.2891 10.6016C15.2266 10.5859 15.1758 10.5469 15.1367 10.4844C15.0977 10.4219 15.0781 10.3594 15.0781 10.2969C15.0781 10.2656 15.082 10.2344 15.0898 10.2031C15.0977 10.1719 15.1094 10.1484 15.125 10.1328C15.2188 9.94531 15.293 9.74219 15.3477 9.52344C15.4023 9.30469 15.4297 9.07812 15.4297 8.84375C15.4297 8.84375 15.4297 8.83594 15.4297 8.82031C15.4297 8.02344 15.1445 7.33984 14.5742 6.76953C14.0039 6.19922 13.3203 5.91406 12.5234 5.91406C11.7266 5.91406 11.043 6.19922 10.4727 6.76953C9.90234 7.33984 9.61719 8.02344 9.61719 8.82031C9.61719 9.63281 9.90234 10.3242 10.4727 10.8945C11.043 11.4648 11.7266 11.75 12.5234 11.75C12.6172 11.75 12.6992 11.7852 12.7695 11.8555C12.8398 11.9258 12.875 12.0078 12.875 12.1016C12.875 12.1953 12.8398 12.2812 12.7695 12.3594C12.6992 12.4375 12.6172 12.4766 12.5234 12.4766Z" fill="white"/>
</svg>
