<svg width="28" height="28" viewBox="0 0 28 28" fill="none" xmlns="http://www.w3.org/2000/svg">
<path d="M21.8477 19.25H10.7734C10.5547 19.25 10.3359 19.209 10.1172 19.127C9.89844 19.0449 9.69792 18.931 9.51562 18.7852C9.3151 18.6393 9.15104 18.4661 9.02344 18.2656C8.89583 18.0651 8.80469 17.8464 8.75 17.6094L5.27734 4.40234H2.1875C2.11458 4.40234 2.05534 4.38867 2.00977 4.36133C1.96419 4.33398 1.92318 4.30208 1.88672 4.26562C1.83203 4.22917 1.79557 4.18359 1.77734 4.12891C1.75911 4.07422 1.75 4.01042 1.75 3.9375C1.75 3.88281 1.75911 3.82812 1.77734 3.77344C1.79557 3.71875 1.83203 3.67318 1.88672 3.63672C1.92318 3.60026 1.96419 3.56836 2.00977 3.54102C2.05534 3.51367 2.11458 3.5 2.1875 3.5H5.57812C5.63281 3.5 5.68294 3.50912 5.72852 3.52734C5.77409 3.54557 5.8151 3.5638 5.85156 3.58203C5.88802 3.61849 5.91992 3.65495 5.94727 3.69141C5.97461 3.72787 5.98828 3.77344 5.98828 3.82812L9.57031 17.3633C9.60677 17.5091 9.66146 17.6413 9.73438 17.7598C9.80729 17.8783 9.89844 17.9831 10.0078 18.0742C10.1172 18.1654 10.2402 18.2337 10.377 18.2793C10.5137 18.3249 10.6458 18.3477 10.7734 18.3477H21.8477C21.9753 18.3477 22.1029 18.3249 22.2305 18.2793C22.3581 18.2337 22.4766 18.1745 22.5859 18.1016C22.6953 18.0104 22.791 17.9102 22.873 17.8008C22.9551 17.6914 23.0143 17.5729 23.0508 17.4453L25.3477 10.1992C25.3659 10.1081 25.3796 10.0078 25.3887 9.89844C25.3978 9.78906 25.3932 9.6888 25.375 9.59766C25.375 9.48828 25.3522 9.38346 25.3066 9.2832C25.2611 9.18294 25.2109 9.08724 25.1562 8.99609C25.1016 8.92318 25.0378 8.85026 24.9648 8.77734C24.8919 8.70443 24.8099 8.64062 24.7188 8.58594C24.6276 8.54948 24.5319 8.51758 24.4316 8.49023C24.3314 8.46289 24.2357 8.44922 24.1445 8.44922H9.21484C9.16016 8.44922 9.10547 8.4401 9.05078 8.42188C8.99609 8.40365 8.95052 8.36719 8.91406 8.3125C8.8776 8.27604 8.8457 8.23047 8.81836 8.17578C8.79102 8.12109 8.77734 8.06641 8.77734 8.01172C8.77734 7.9388 8.79102 7.875 8.81836 7.82031C8.8457 7.76562 8.8776 7.72005 8.91406 7.68359C8.95052 7.64713 8.99609 7.61523 9.05078 7.58789C9.10547 7.56055 9.16016 7.54688 9.21484 7.54688H24.1445C24.3086 7.54688 24.4727 7.56966 24.6367 7.61523C24.8008 7.66081 24.9557 7.72005 25.1016 7.79297C25.2474 7.88412 25.3841 7.98438 25.5117 8.09375C25.6393 8.20312 25.7487 8.33073 25.8398 8.47656C25.9492 8.6224 26.0358 8.77734 26.0996 8.94141C26.1634 9.10547 26.2044 9.27865 26.2227 9.46094C26.2591 9.625 26.2682 9.79818 26.25 9.98047C26.2318 10.1628 26.1953 10.3359 26.1406 10.5L23.8711 17.7188C23.7982 17.9375 23.6934 18.1426 23.5566 18.334C23.4199 18.5254 23.2604 18.694 23.0781 18.8398C22.8958 18.9674 22.6999 19.0677 22.4902 19.1406C22.2806 19.2135 22.0664 19.25 21.8477 19.25ZM11.8125 24.5C11.5938 24.5 11.3796 24.4681 11.1699 24.4043C10.9603 24.3405 10.7734 24.2539 10.6094 24.1445C10.4271 24.0169 10.2676 23.8711 10.1309 23.707C9.99414 23.543 9.88021 23.3607 9.78906 23.1602C9.71615 22.9596 9.66602 22.75 9.63867 22.5312C9.61133 22.3125 9.625 22.0938 9.67969 21.875C9.71615 21.6745 9.7845 21.4785 9.88477 21.2871C9.98503 21.0957 10.1081 20.918 10.2539 20.7539C10.418 20.6081 10.5957 20.485 10.7871 20.3848C10.9785 20.2845 11.1745 20.2161 11.375 20.1797C11.5938 20.125 11.8125 20.1113 12.0312 20.1387C12.25 20.166 12.4596 20.2161 12.6602 20.2891C12.8607 20.3802 13.043 20.4941 13.207 20.6309C13.3711 20.7676 13.5169 20.9271 13.6445 21.1094C13.7539 21.2734 13.8405 21.4603 13.9043 21.6699C13.9681 21.8796 14 22.0938 14 22.3125C14 22.6042 13.9453 22.8822 13.8359 23.1465C13.7266 23.4108 13.5716 23.6523 13.3711 23.8711C13.1523 24.0716 12.9108 24.2266 12.6465 24.3359C12.3822 24.4453 12.1042 24.5 11.8125 24.5ZM11.8125 21C11.6849 21 11.5573 21.0182 11.4297 21.0547C11.3021 21.0911 11.1836 21.1458 11.0742 21.2188C10.9648 21.2917 10.8691 21.3783 10.7871 21.4785C10.7051 21.5788 10.6458 21.6927 10.6094 21.8203C10.5547 21.9297 10.5228 22.0482 10.5137 22.1758C10.5046 22.3034 10.5091 22.431 10.5273 22.5586C10.5456 22.6862 10.5866 22.8092 10.6504 22.9277C10.7142 23.0462 10.7917 23.151 10.8828 23.2422C10.974 23.3333 11.0788 23.4108 11.1973 23.4746C11.3158 23.5384 11.4388 23.5794 11.5664 23.5977C11.694 23.6159 11.8216 23.6204 11.9492 23.6113C12.0768 23.6022 12.1953 23.5703 12.3047 23.5156C12.4323 23.4792 12.5462 23.4199 12.6465 23.3379C12.7467 23.2559 12.8333 23.1602 12.9062 23.0508C12.9792 22.9414 13.0339 22.8229 13.0703 22.6953C13.1068 22.5677 13.125 22.4401 13.125 22.3125C13.125 22.1302 13.0931 21.9616 13.0293 21.8066C12.9655 21.6517 12.8698 21.5104 12.7422 21.3828C12.6146 21.2552 12.4733 21.1595 12.3184 21.0957C12.1634 21.0319 11.9948 21 11.8125 21ZM20.5625 24.5C20.3438 24.5 20.1296 24.4681 19.9199 24.4043C19.7103 24.3405 19.5234 24.2539 19.3594 24.1445C19.1771 24.0169 19.0176 23.8711 18.8809 23.707C18.7441 23.543 18.6302 23.3607 18.5391 23.1602C18.4661 22.9596 18.416 22.75 18.3887 22.5312C18.3613 22.3125 18.375 22.0938 18.4297 21.875C18.4661 21.6745 18.5345 21.4785 18.6348 21.2871C18.735 21.0957 18.8581 20.918 19.0039 20.7539C19.168 20.6081 19.3457 20.485 19.5371 20.3848C19.7285 20.2845 19.9245 20.2161 20.125 20.1797C20.3438 20.125 20.5625 20.1113 20.7812 20.1387C21 20.166 21.2096 20.2161 21.4102 20.2891C21.6107 20.3802 21.793 20.4941 21.957 20.6309C22.1211 20.7676 22.2669 20.9271 22.3945 21.1094C22.5039 21.2734 22.5905 21.4603 22.6543 21.6699C22.7181 21.8796 22.75 22.0938 22.75 22.3125C22.75 22.6042 22.6953 22.8822 22.5859 23.1465C22.4766 23.4108 22.3216 23.6523 22.1211 23.8711C21.9023 24.0716 21.6608 24.2266 21.3965 24.3359C21.1322 24.4453 20.8542 24.5 20.5625 24.5ZM20.5625 21C20.4349 21 20.3073 21.0182 20.1797 21.0547C20.0521 21.0911 19.9336 21.1458 19.8242 21.2188C19.7148 21.2917 19.6191 21.3783 19.5371 21.4785C19.4551 21.5788 19.3958 21.6927 19.3594 21.8203C19.3047 21.9297 19.2728 22.0482 19.2637 22.1758C19.2546 22.3034 19.2591 22.431 19.2773 22.5586C19.2956 22.6862 19.3366 22.8092 19.4004 22.9277C19.4642 23.0462 19.5417 23.151 19.6328 23.2422C19.724 23.3333 19.8288 23.4108 19.9473 23.4746C20.0658 23.5384 20.1888 23.5794 20.3164 23.5977C20.444 23.6159 20.5716 23.6204 20.6992 23.6113C20.8268 23.6022 20.9453 23.5703 21.0547 23.5156C21.1823 23.4792 21.2962 23.4199 21.3965 23.3379C21.4967 23.2559 21.5833 23.1602 21.6562 23.0508C21.7292 22.9414 21.7839 22.8229 21.8203 22.6953C21.8568 22.5677 21.875 22.4401 21.875 22.3125C21.875 22.1302 21.8431 21.9616 21.7793 21.8066C21.7155 21.6517 21.6198 21.5104 21.4922 21.3828C21.3646 21.2552 21.2233 21.1595 21.0684 21.0957C20.9134 21.0319 20.7448 21 20.5625 21Z" fill="white"/>
</svg>
