<svg width="16" height="16" viewBox="0 0 16 16" fill="none" xmlns="http://www.w3.org/2000/svg">
<path d="M5.90625 1.85938C5.90625 1.85938 5.90365 1.85938 5.89844 1.85938C5.89323 1.85938 5.89062 1.85938 5.89062 1.85938C5.33854 1.85938 4.81771 1.96354 4.32812 2.17188C3.82812 2.39062 3.39583 2.68229 3.03125 3.04688C2.66667 3.41146 2.38021 3.83854 2.17188 4.32812C1.96354 4.81771 1.85938 5.34375 1.85938 5.90625C1.85938 6.45833 1.96354 6.97917 2.17188 7.46875C2.38021 7.95833 2.66667 8.38542 3.03125 8.75C3.39583 9.11458 3.82812 9.40625 4.32812 9.625C4.81771 9.83333 5.33854 9.9375 5.89062 9.9375C6.45312 9.9375 6.97917 9.83333 7.46875 9.625C7.94792 9.40625 8.3724 9.11719 8.74219 8.75781C9.11198 8.39844 9.40104 7.97396 9.60938 7.48438C9.81771 6.99479 9.92188 6.46875 9.92188 5.90625C9.92188 5.34375 9.81771 4.81771 9.60938 4.32812C9.40104 3.83854 9.11458 3.41146 8.75 3.04688C8.38542 2.68229 7.95833 2.39583 7.46875 2.1875C6.98958 1.96875 6.46875 1.85938 5.90625 1.85938ZM5.90625 1C6.58333 1 7.22396 1.13021 7.82812 1.39062C8.42188 1.65104 8.9401 2.0026 9.38281 2.44531C9.82552 2.88802 10.1771 3.40625 10.4375 4C10.6875 4.59375 10.8125 5.22917 10.8125 5.90625C10.8125 6.58333 10.6875 7.22396 10.4375 7.82812C10.1771 8.42188 9.82552 8.9401 9.38281 9.38281C8.9401 9.82552 8.42188 10.1771 7.82812 10.4375C7.22396 10.6875 6.58333 10.8125 5.90625 10.8125C5.22917 10.8125 4.59375 10.6875 4 10.4375C3.40625 10.1771 2.88802 9.82552 2.44531 9.38281C2.0026 8.9401 1.65104 8.42188 1.39062 7.82812C1.13021 7.22396 1 6.58333 1 5.90625C1 5.22917 1.13021 4.59375 1.39062 4C1.65104 3.40625 2.0026 2.88802 2.44531 2.44531C2.88802 2.0026 3.40625 1.65104 4 1.39062C4.59375 1.13021 5.22917 1 5.90625 1ZM14.5 15C14.4375 15 14.3802 14.9896 14.3281 14.9688C14.276 14.9479 14.2292 14.9167 14.1875 14.875L9.67188 10.3594C9.63021 10.3177 9.59896 10.2708 9.57812 10.2188C9.55729 10.1667 9.54688 10.1094 9.54688 10.0469C9.54688 9.92188 9.58854 9.81771 9.67188 9.73438C9.75521 9.65104 9.85938 9.60938 9.98438 9.60938C10.0365 9.60938 10.0885 9.6224 10.1406 9.64844C10.1927 9.67448 10.2396 9.70312 10.2812 9.73438L14.8125 14.2656C14.8438 14.2969 14.8724 14.3411 14.8984 14.3984C14.9245 14.4557 14.9375 14.5104 14.9375 14.5625C14.9375 14.625 14.9245 14.6823 14.8984 14.7344C14.8724 14.7865 14.8438 14.8333 14.8125 14.875C14.7708 14.9167 14.724 14.9479 14.6719 14.9688C14.6198 14.9896 14.5625 15 14.5 15Z" fill="#EB5B25"/>
</svg>
